<svg width="32" height="32" viewBox="0 0 32 32" fill="none" xmlns="http://www.w3.org/2000/svg">
<path d="M0.0488446 31.9995C0.319066 30.7629 0.57928 29.5751 0.840744 28.3885C1.18853 26.8031 1.54257 25.2189 1.87784 23.6372C1.91107 23.4597 1.88698 23.2762 1.80904 23.1133C0.918823 21.4014 0.343796 19.5434 0.111396 17.6281C-0.263912 14.3772 0.296548 11.2826 1.8891 8.4293C4.51626 3.72552 8.51954 0.905995 13.8664 0.158291C22.2033 -1.01328 30.1198 4.5895 31.6773 12.8243C32.8107 18.8259 30.9467 23.926 26.3329 27.9296C23.0577 30.7717 19.1683 31.9545 14.8472 31.6807C12.8566 31.553 10.9101 31.0373 9.11753 30.1627C8.91626 30.0589 8.68368 30.0331 8.4645 30.0902C5.71224 30.7204 2.96248 31.3456 0.215231 31.9657C0.176449 31.9795 0.137667 31.9832 0.0488446 31.9995Z" fill="white"/>
<path d="M3.33777 28.7004C5.17928 28.2815 6.95699 27.8827 8.72969 27.4701C8.9968 27.3958 9.28249 27.4304 9.52409 27.5663C12.7142 29.2806 16.0807 29.6919 19.5686 28.7429C26.3742 26.8849 30.5651 20.2656 29.2515 13.3987C27.9029 6.35303 20.9685 1.19287 13.2459 2.79456C9.27889 3.61728 6.25767 5.84039 4.23851 9.35135C2.80535 11.8035 2.23501 14.6647 2.61843 17.4786C2.84737 19.3391 3.49165 21.0633 4.43242 22.6888C4.52432 22.8456 4.5613 23.0287 4.5375 23.2089C4.31857 24.2792 4.07212 25.3432 3.83693 26.4098C3.67305 27.1525 3.51166 27.9027 3.33777 28.7004Z" fill="#5ACC70"/>
<path d="M11.1979 8.87483C12.1137 8.87483 12.2388 8.95361 12.5641 9.73007C12.9131 10.5653 13.2496 11.4055 13.6012 12.2395C13.7075 12.4896 13.7263 12.7396 13.5674 12.9509C13.2997 13.3198 13.0219 13.6824 12.7217 14.0237C12.3814 14.4101 12.3589 14.5114 12.6241 14.954C13.7473 16.8799 15.4815 18.376 17.5519 19.2052C17.9535 19.3677 18.1024 19.3464 18.3738 19.0214C18.7216 18.6062 19.0669 18.1886 19.3984 17.7623C19.7299 17.3359 19.8613 17.2621 20.3792 17.5009C21.1186 17.8348 21.8442 18.1999 22.5748 18.5525C22.8 18.6613 23.0201 18.7788 23.2466 18.8838C23.3449 18.9217 23.4283 18.9901 23.4847 19.0791C23.541 19.168 23.5672 19.2727 23.5593 19.3777C23.5306 20.3505 23.2954 21.2082 22.4422 21.8296C21.2912 22.6661 20.0652 22.7436 18.7279 22.4235C15.3226 21.6083 12.7104 19.6665 10.6875 16.8633C9.98694 15.8918 9.27136 14.9265 8.91982 13.7574C8.45569 12.2095 8.66961 10.8004 9.75676 9.55377C10.1671 9.07614 10.6337 8.78231 11.1979 8.87483Z" fill="#FEFEFE"/>
</svg>
